<svg width="121" height="39" viewBox="0 0 121 39" fill="none" xmlns="http://www.w3.org/2000/svg">
<path d="M107.047 38.7353H12.8745C5.7863 38.7353 0 30.0465 0 19.4027C0 8.75889 5.7863 0.0700684 12.8745 0.0700684H107.191C114.28 0.0700684 120.066 8.75889 120.066 19.4027C120.066 30.0465 114.28 38.7353 107.047 38.7353Z" fill="#5CDDBC"/>
<path d="M29.7614 26V11.4545H38.5398V13.017H31.5227V17.9318H38.0852V19.4943H31.5227V24.4375H38.6534V26H29.7614ZM50.4077 15.0909L46.3736 26H44.669L40.6349 15.0909H42.4531L45.4645 23.7841H45.5781L48.5895 15.0909H50.4077ZM52.62 26V15.0909H54.2962V26H52.62ZM53.4723 13.2727C53.1456 13.2727 52.8639 13.1615 52.6271 12.9389C52.3951 12.7164 52.2791 12.4489 52.2791 12.1364C52.2791 11.8239 52.3951 11.5563 52.6271 11.3338C52.8639 11.1113 53.1456 11 53.4723 11C53.799 11 54.0784 11.1113 54.3104 11.3338C54.5471 11.5563 54.6655 11.8239 54.6655 12.1364C54.6655 12.4489 54.5471 12.7164 54.3104 12.9389C54.0784 13.1615 53.799 13.2727 53.4723 13.2727ZM57.3661 26V15.0909H58.9854V16.7955H59.1275C59.3548 16.2131 59.7217 15.7609 60.2283 15.4389C60.735 15.1122 61.3434 14.9489 62.0536 14.9489C62.7733 14.9489 63.3723 15.1122 63.8505 15.4389C64.3335 15.7609 64.7099 16.2131 64.9798 16.7955H65.0934C65.3728 16.232 65.7918 15.7846 66.3505 15.4531C66.9092 15.117 67.5792 14.9489 68.3604 14.9489C69.3358 14.9489 70.1336 15.2543 70.7539 15.8651C71.3742 16.4711 71.6843 17.4157 71.6843 18.6989V26H70.0082V18.6989C70.0082 17.8939 69.788 17.3187 69.3477 16.973C68.9073 16.6274 68.3888 16.4545 67.7923 16.4545C67.0252 16.4545 66.431 16.6866 66.0096 17.1506C65.5882 17.6098 65.3775 18.1922 65.3775 18.8977V26H63.6729V18.5284C63.6729 17.9081 63.4717 17.4086 63.0692 17.0298C62.6668 16.6463 62.1483 16.4545 61.5138 16.4545C61.0782 16.4545 60.671 16.5705 60.2923 16.8026C59.9182 17.0346 59.6152 17.3565 59.3832 17.7685C59.1559 18.1757 59.0423 18.6468 59.0423 19.1818V26H57.3661ZM79.1808 26.2273C78.1959 26.2273 77.3318 25.9929 76.5884 25.5241C75.8498 25.0554 75.2721 24.3996 74.8555 23.5568C74.4435 22.714 74.2376 21.7292 74.2376 20.6023C74.2376 19.4659 74.4435 18.474 74.8555 17.6264C75.2721 16.7789 75.8498 16.1207 76.5884 15.652C77.3318 15.1832 78.1959 14.9489 79.1808 14.9489C80.1656 14.9489 81.0273 15.1832 81.766 15.652C82.5094 16.1207 83.087 16.7789 83.4989 17.6264C83.9156 18.474 84.1239 19.4659 84.1239 20.6023C84.1239 21.7292 83.9156 22.714 83.4989 23.5568C83.087 24.3996 82.5094 25.0554 81.766 25.5241C81.0273 25.9929 80.1656 26.2273 79.1808 26.2273ZM79.1808 24.7216C79.9289 24.7216 80.5444 24.5298 81.0273 24.1463C81.5103 23.7628 81.8678 23.2585 82.0998 22.6335C82.3318 22.0085 82.4478 21.3314 82.4478 20.6023C82.4478 19.8731 82.3318 19.1937 82.0998 18.5639C81.8678 17.9342 81.5103 17.4252 81.0273 17.0369C80.5444 16.6487 79.9289 16.4545 79.1808 16.4545C78.4326 16.4545 77.8171 16.6487 77.3342 17.0369C76.8512 17.4252 76.4937 17.9342 76.2617 18.5639C76.0297 19.1937 75.9137 19.8731 75.9137 20.6023C75.9137 21.3314 76.0297 22.0085 76.2617 22.6335C76.4937 23.2585 76.8512 23.7628 77.3342 24.1463C77.8171 24.5298 78.4326 24.7216 79.1808 24.7216ZM86.6825 26V15.0909H88.3018V16.7386H88.4155C88.6143 16.1989 88.9742 15.7609 89.495 15.4247C90.0159 15.0885 90.603 14.9205 91.2564 14.9205C91.3795 14.9205 91.5334 14.9228 91.718 14.9276C91.9027 14.9323 92.0424 14.9394 92.1371 14.9489V16.6534C92.0803 16.6392 91.95 16.6179 91.7464 16.5895C91.5476 16.5563 91.3369 16.5398 91.1143 16.5398C90.584 16.5398 90.1106 16.651 89.6939 16.8736C89.282 17.0914 88.9553 17.3944 88.7138 17.7827C88.477 18.1662 88.3587 18.6042 88.3587 19.0966V26H86.6825ZM97.3342 26.2557C96.6429 26.2557 96.0155 26.1255 95.4521 25.8651C94.8886 25.5999 94.4412 25.2188 94.1097 24.7216C93.7783 24.2197 93.6126 23.6136 93.6126 22.9034C93.6126 22.2784 93.7357 21.7718 93.9819 21.3835C94.2281 20.9905 94.5572 20.6828 94.9691 20.4602C95.381 20.2377 95.8356 20.072 96.3327 19.9631C96.8346 19.8494 97.3389 19.7595 97.8455 19.6932C98.5084 19.608 99.0458 19.544 99.4577 19.5014C99.8744 19.4541 100.177 19.3759 100.367 19.267C100.561 19.1581 100.658 18.9687 100.658 18.6989V18.642C100.658 17.9413 100.466 17.3968 100.083 17.0085C99.704 16.6203 99.1287 16.4261 98.3569 16.4261C97.5567 16.4261 96.9293 16.6013 96.4748 16.9517C96.0202 17.3021 95.7006 17.6761 95.516 18.0739L93.9251 17.5057C94.2092 16.8428 94.5879 16.3267 95.0614 15.9574C95.5397 15.5833 96.0605 15.3229 96.6239 15.1761C97.1921 15.0246 97.7508 14.9489 98.3001 14.9489C98.6504 14.9489 99.0529 14.9915 99.5075 15.0767C99.9667 15.1572 100.409 15.3253 100.836 15.581C101.266 15.8366 101.624 16.2225 101.908 16.7386C102.192 17.2547 102.334 17.946 102.334 18.8125V26H100.658V24.5227H100.573C100.459 24.7595 100.27 25.0128 100.005 25.2827C99.7395 25.5526 99.3867 25.7822 98.9464 25.9716C98.506 26.161 97.9686 26.2557 97.3342 26.2557ZM97.5898 24.75C98.2527 24.75 98.8114 24.6198 99.266 24.3594C99.7253 24.099 100.071 23.7628 100.303 23.3509C100.54 22.9389 100.658 22.5057 100.658 22.0511V20.517C100.587 20.6023 100.431 20.6804 100.189 20.7514C99.9525 20.8177 99.6779 20.8769 99.3654 20.929C99.0576 20.9763 98.757 21.0189 98.4634 21.0568C98.1746 21.09 97.9402 21.1184 97.7603 21.142C97.3247 21.1989 96.9175 21.2912 96.5387 21.419C96.1647 21.5421 95.8616 21.7292 95.6296 21.9801C95.4023 22.2263 95.2887 22.5625 95.2887 22.9886C95.2887 23.571 95.5041 24.0114 95.935 24.3097C96.3706 24.6032 96.9222 24.75 97.5898 24.75Z" fill="#373845"/>
<path d="M20.3491 6.17517V31.0024" stroke="#2F323A" stroke-miterlimit="10"/>
</svg>
