<svg width="630" height="489" viewBox="0 0 630 489" fill="none" xmlns="http://www.w3.org/2000/svg">
<path d="M405.908 100.228H60.5656C33.907 100.228 12.5393 78.6569 12.5393 52.2017V48.9456C12.5393 22.287 34.1105 0.919312 60.5656 0.919312H405.908C432.566 0.919312 453.934 22.4905 453.934 48.9456V52.2017C454.137 78.8604 432.566 100.228 405.908 100.228Z" fill="#F0F0EE"/>
<path d="M556.905 183.664H211.563C184.904 183.664 163.537 162.092 163.537 135.637V132.381C163.537 105.723 185.108 84.3549 211.563 84.3549H556.905C583.564 84.3549 604.931 105.926 604.931 132.381V135.637C604.931 162.092 583.36 183.664 556.905 183.664Z" fill="#F0F0EE"/>
<path d="M393.494 258.552H48.1518C21.4931 258.552 0.125488 236.981 0.125488 210.526V207.27C0.125488 180.611 21.6966 159.243 48.1518 159.243H393.494C420.152 159.243 441.52 180.815 441.52 207.27V210.526C441.724 236.981 420.152 258.552 393.494 258.552Z" fill="#F0F0EE"/>
<path d="M425.444 350.128H79.8982C53.2395 350.128 31.8718 328.557 31.8718 302.101V298.845C31.8718 272.187 53.443 250.819 79.8982 250.819H425.24C451.899 250.819 473.266 272.39 473.266 298.845V302.101C473.47 328.557 451.899 350.128 425.444 350.128Z" fill="#F0F0EE"/>
<path d="M545.509 397.34H200.167C173.509 397.34 152.141 375.769 152.141 349.314V346.058C152.141 319.399 173.712 298.031 200.167 298.031H545.509C572.168 298.031 593.536 319.602 593.536 346.058V349.314C593.739 375.769 572.168 397.34 545.509 397.34Z" fill="#F0F0EE"/>
<path d="M454.544 481.997H108.998C82.3397 481.997 60.972 460.425 60.972 433.97V430.714C60.972 404.055 82.5432 382.688 108.998 382.688H454.544C481.202 382.688 502.57 404.259 502.57 430.714V433.97C502.57 460.425 480.999 481.997 454.544 481.997Z" fill="#F0F0EE"/>
<path d="M359.305 328.353H255.723V461.239H359.305V328.353Z" fill="#8A8D91"/>
<path d="M359.305 328.353H255.723V461.239H359.305V328.353Z" fill="white" stroke="#2F323A" stroke-miterlimit="10" stroke-linecap="round" stroke-linejoin="round"/>
<path d="M514.577 343.412H100.451C90.0729 343.412 81.7294 335.069 81.7294 324.69V45.2826C81.7294 34.9041 90.0729 26.5605 100.451 26.5605H514.78C525.159 26.5605 533.502 34.9041 533.502 45.2826V324.894C533.299 335.069 524.955 343.412 514.577 343.412Z" fill="white" stroke="#2F323A" stroke-miterlimit="10" stroke-linecap="round" stroke-linejoin="round"/>
<path d="M100.451 26.5605H514.78C525.159 26.5605 533.502 34.9041 533.502 45.2826V311.666H81.7294V45.2826C81.7294 34.9041 90.0729 26.5605 100.451 26.5605Z" fill="#2F323A"/>
<path d="M507.658 52.4052H110.017V285.007H507.658V52.4052Z" fill="white"/>
<path d="M381.284 461.239H233.948V483.625H381.284V461.239Z" fill="white" stroke="#2F323A" stroke-miterlimit="10" stroke-linecap="round" stroke-linejoin="round"/>
<path d="M117.343 84.3548H113.476C105.743 84.3548 99.4344 78.0463 99.4344 70.3132V43.858H131.384V70.3132C131.588 78.0463 125.279 84.3548 117.343 84.3548Z" fill="#5CDDBC"/>
<path d="M181.445 84.3548H177.579C169.846 84.3548 163.537 78.0463 163.537 70.3132V43.858H195.487V70.3132C195.487 78.0463 189.382 84.3548 181.445 84.3548Z" fill="#5CDDBC"/>
<path d="M149.496 84.3548H145.629C137.896 84.3548 131.587 78.0463 131.587 70.3132V43.858H163.537V70.3132C163.537 78.0463 157.229 84.3548 149.496 84.3548Z" fill="#1EBA7B"/>
<path d="M245.549 84.3548H241.682C233.949 84.3548 227.641 78.0463 227.641 70.3132V43.858H259.59V70.3132C259.59 78.0463 253.282 84.3548 245.549 84.3548Z" fill="#5CDDBC"/>
<path d="M213.599 84.3548H209.732C201.999 84.3548 195.691 78.0463 195.691 70.3132V43.858H227.64V70.3132C227.64 78.0463 221.332 84.3548 213.599 84.3548Z" fill="#1EBA7B"/>
<path d="M309.652 84.3548H305.785C298.052 84.3548 291.744 78.0463 291.744 70.3132V43.858H323.693V70.3132C323.693 78.0463 317.385 84.3548 309.652 84.3548Z" fill="#5CDDBC"/>
<path d="M277.702 84.3548H273.835C266.102 84.3548 259.793 78.0463 259.793 70.3132V43.858H291.743V70.3132C291.743 78.0463 285.435 84.3548 277.702 84.3548Z" fill="#1EBA7B"/>
<path d="M323.897 41.2125H99.4344V43.858H323.897V41.2125Z" fill="#1EBA7B"/>
<path d="M373.145 84.3548H369.278C361.545 84.3548 355.237 78.0463 355.237 70.3132V43.858H387.186V70.3132C387.186 78.0463 380.878 84.3548 373.145 84.3548Z" fill="#5CDDBC"/>
<path d="M341.195 84.3548H337.328C329.595 84.3548 323.287 78.0463 323.287 70.3132V43.858H355.237V70.3132C355.237 78.0463 348.928 84.3548 341.195 84.3548Z" fill="#1EBA7B"/>
<path d="M437.248 84.3548H433.381C425.648 84.3548 419.339 78.0463 419.339 70.3132V43.858H451.289V70.3132C451.289 78.0463 444.981 84.3548 437.248 84.3548Z" fill="#5CDDBC"/>
<path d="M405.297 84.3548H401.431C393.698 84.3548 387.389 78.0463 387.389 70.3132V43.858H419.339V70.3132C419.339 78.0463 413.03 84.3548 405.297 84.3548Z" fill="#1EBA7B"/>
<path d="M501.35 84.3548H497.484C489.751 84.3548 483.442 78.0463 483.442 70.3132V43.858H515.392V70.3132C515.392 78.0463 509.083 84.3548 501.35 84.3548Z" fill="#5CDDBC"/>
<path d="M469.196 84.3548H465.33C457.597 84.3548 451.288 78.0463 451.288 70.3132V43.858H483.238V70.3132C483.442 78.0463 477.133 84.3548 469.196 84.3548Z" fill="#1EBA7B"/>
<path d="M515.596 41.2125H291.134V43.858H515.596V41.2125Z" fill="#1EBA7B"/>
<path d="M133.647 154.431H121.303V114.431H134.194C138.074 114.431 141.394 115.232 144.155 116.834C146.915 118.422 149.031 120.707 150.502 123.689C151.974 126.658 152.709 130.213 152.709 134.353C152.709 138.52 151.967 142.107 150.483 145.115C148.998 148.11 146.837 150.414 143.998 152.029C141.16 153.631 137.709 154.431 133.647 154.431ZM126.147 150.135H133.334C136.642 150.135 139.382 149.497 141.557 148.22C143.731 146.944 145.353 145.128 146.42 142.771C147.488 140.414 148.022 137.609 148.022 134.353C148.022 131.124 147.494 128.344 146.44 126.013C145.385 123.67 143.81 121.873 141.713 120.623C139.617 119.36 137.006 118.728 133.881 118.728H126.147V150.135ZM160.209 154.431V124.431H164.819V154.431H160.209ZM162.553 119.431C161.655 119.431 160.88 119.125 160.229 118.513C159.591 117.901 159.272 117.166 159.272 116.306C159.272 115.447 159.591 114.711 160.229 114.099C160.88 113.487 161.655 113.181 162.553 113.181C163.451 113.181 164.22 113.487 164.858 114.099C165.509 114.711 165.834 115.447 165.834 116.306C165.834 117.166 165.509 117.901 164.858 118.513C164.22 119.125 163.451 119.431 162.553 119.431ZM194.511 131.15L190.37 132.322C190.11 131.632 189.726 130.961 189.218 130.31C188.723 129.646 188.046 129.099 187.187 128.67C186.327 128.24 185.227 128.025 183.886 128.025C182.05 128.025 180.52 128.448 179.296 129.295C178.085 130.128 177.48 131.189 177.48 132.478C177.48 133.624 177.896 134.529 178.73 135.193C179.563 135.857 180.865 136.411 182.636 136.853L187.089 137.947C189.771 138.598 191.77 139.594 193.085 140.935C194.4 142.263 195.058 143.976 195.058 146.072C195.058 147.791 194.563 149.327 193.574 150.681C192.597 152.036 191.23 153.103 189.472 153.885C187.714 154.666 185.67 155.056 183.339 155.056C180.279 155.056 177.747 154.392 175.742 153.064C173.736 151.736 172.467 149.796 171.933 147.244L176.308 146.15C176.725 147.765 177.512 148.976 178.671 149.783C179.843 150.59 181.373 150.994 183.261 150.994C185.409 150.994 187.115 150.538 188.378 149.627C189.654 148.702 190.292 147.595 190.292 146.306C190.292 145.265 189.928 144.392 189.199 143.689C188.469 142.973 187.35 142.439 185.839 142.088L180.839 140.916C178.092 140.265 176.074 139.256 174.784 137.888C173.508 136.508 172.87 134.783 172.87 132.713C172.87 131.02 173.346 129.523 174.296 128.22C175.26 126.918 176.568 125.896 178.222 125.154C179.889 124.412 181.777 124.041 183.886 124.041C186.855 124.041 189.186 124.692 190.878 125.994C192.584 127.296 193.795 129.015 194.511 131.15ZM214.184 155.056C211.371 155.056 208.95 154.392 206.918 153.064C204.887 151.736 203.325 149.907 202.231 147.576C201.137 145.245 200.59 142.582 200.59 139.588C200.59 136.541 201.15 133.852 202.27 131.521C203.403 129.178 204.978 127.348 206.996 126.033C209.028 124.705 211.397 124.041 214.106 124.041C216.215 124.041 218.116 124.431 219.809 125.213C221.502 125.994 222.888 127.088 223.969 128.494C225.05 129.9 225.72 131.541 225.981 133.416H221.371C221.02 132.049 220.239 130.838 219.028 129.783C217.83 128.715 216.215 128.181 214.184 128.181C212.387 128.181 210.812 128.65 209.457 129.588C208.116 130.512 207.068 131.821 206.313 133.513C205.571 135.193 205.2 137.166 205.2 139.431C205.2 141.749 205.564 143.767 206.293 145.486C207.035 147.205 208.077 148.539 209.418 149.49C210.772 150.441 212.361 150.916 214.184 150.916C215.382 150.916 216.469 150.707 217.446 150.291C218.422 149.874 219.249 149.275 219.926 148.494C220.603 147.713 221.085 146.775 221.371 145.681H225.981C225.72 147.452 225.076 149.047 224.047 150.467C223.032 151.873 221.684 152.993 220.004 153.826C218.338 154.646 216.397 155.056 214.184 155.056ZM244.907 155.056C242.198 155.056 239.822 154.412 237.778 153.123C235.746 151.834 234.158 150.03 233.012 147.713C231.879 145.395 231.313 142.687 231.313 139.588C231.313 136.463 231.879 133.735 233.012 131.404C234.158 129.073 235.746 127.263 237.778 125.974C239.822 124.685 242.198 124.041 244.907 124.041C247.615 124.041 249.985 124.685 252.016 125.974C254.06 127.263 255.649 129.073 256.782 131.404C257.927 133.735 258.5 136.463 258.5 139.588C258.5 142.687 257.927 145.395 256.782 147.713C255.649 150.03 254.06 151.834 252.016 153.123C249.985 154.412 247.615 155.056 244.907 155.056ZM244.907 150.916C246.964 150.916 248.657 150.388 249.985 149.334C251.313 148.279 252.296 146.892 252.934 145.174C253.572 143.455 253.891 141.593 253.891 139.588C253.891 137.582 253.572 135.714 252.934 133.982C252.296 132.25 251.313 130.851 249.985 129.783C248.657 128.715 246.964 128.181 244.907 128.181C242.849 128.181 241.157 128.715 239.828 129.783C238.5 130.851 237.517 132.25 236.879 133.982C236.241 135.714 235.922 137.582 235.922 139.588C235.922 141.593 236.241 143.455 236.879 145.174C237.517 146.892 238.5 148.279 239.828 149.334C241.157 150.388 242.849 150.916 244.907 150.916ZM284.443 142.166V124.431H289.052V154.431H284.443V149.353H284.13C283.427 150.877 282.333 152.172 280.849 153.24C279.365 154.295 277.49 154.822 275.224 154.822C273.349 154.822 271.682 154.412 270.224 153.592C268.766 152.758 267.62 151.508 266.786 149.842C265.953 148.162 265.536 146.046 265.536 143.494V124.431H270.146V143.181C270.146 145.369 270.758 147.114 271.982 148.416C273.219 149.718 274.794 150.369 276.708 150.369C277.854 150.369 279.02 150.076 280.204 149.49C281.402 148.904 282.405 148.006 283.212 146.795C284.033 145.584 284.443 144.041 284.443 142.166ZM302.104 136.385V154.431H297.494V124.431H301.948V129.119H302.338C303.041 127.595 304.109 126.372 305.541 125.447C306.974 124.51 308.823 124.041 311.088 124.041C313.119 124.041 314.897 124.457 316.42 125.291C317.944 126.111 319.129 127.361 319.975 129.041C320.821 130.707 321.244 132.817 321.244 135.369V154.431H316.635V135.681C316.635 133.325 316.023 131.489 314.799 130.174C313.575 128.845 311.895 128.181 309.76 128.181C308.289 128.181 306.974 128.5 305.815 129.138C304.669 129.776 303.764 130.707 303.1 131.931C302.436 133.155 302.104 134.64 302.104 136.385ZM342.714 124.431V128.338H327.167V124.431H342.714ZM331.699 117.244H336.308V145.838C336.308 147.14 336.497 148.116 336.874 148.767C337.265 149.405 337.76 149.835 338.359 150.056C338.971 150.265 339.615 150.369 340.292 150.369C340.8 150.369 341.217 150.343 341.542 150.291C341.868 150.226 342.128 150.174 342.324 150.135L343.261 154.275C342.949 154.392 342.512 154.51 341.952 154.627C341.393 154.757 340.683 154.822 339.824 154.822C338.521 154.822 337.245 154.542 335.995 153.982C334.758 153.422 333.73 152.569 332.909 151.424C332.102 150.278 331.699 148.832 331.699 147.088V117.244ZM370.361 131.15L366.22 132.322C365.96 131.632 365.576 130.961 365.068 130.31C364.573 129.646 363.896 129.099 363.036 128.67C362.177 128.24 361.077 128.025 359.736 128.025C357.9 128.025 356.37 128.448 355.146 129.295C353.935 130.128 353.329 131.189 353.329 132.478C353.329 133.624 353.746 134.529 354.579 135.193C355.413 135.857 356.715 136.411 358.486 136.853L362.939 137.947C365.621 138.598 367.62 139.594 368.935 140.935C370.25 142.263 370.908 143.976 370.908 146.072C370.908 147.791 370.413 149.327 369.423 150.681C368.447 152.036 367.079 153.103 365.322 153.885C363.564 154.666 361.52 155.056 359.189 155.056C356.129 155.056 353.596 154.392 351.591 153.064C349.586 151.736 348.316 149.796 347.783 147.244L352.158 146.15C352.574 147.765 353.362 148.976 354.521 149.783C355.693 150.59 357.223 150.994 359.111 150.994C361.259 150.994 362.965 150.538 364.228 149.627C365.504 148.702 366.142 147.595 366.142 146.306C366.142 145.265 365.777 144.392 365.048 143.689C364.319 142.973 363.199 142.439 361.689 142.088L356.689 140.916C353.941 140.265 351.923 139.256 350.634 137.888C349.358 136.508 348.72 134.783 348.72 132.713C348.72 131.02 349.195 129.523 350.146 128.22C351.109 126.918 352.418 125.896 354.072 125.154C355.738 124.412 357.626 124.041 359.736 124.041C362.704 124.041 365.035 124.692 366.728 125.994C368.434 127.296 369.645 129.015 370.361 131.15ZM405.737 154.978C403.445 154.978 401.381 154.523 399.545 153.611C397.709 152.7 396.238 151.45 395.131 149.861C394.024 148.273 393.419 146.463 393.315 144.431H398.002C398.185 146.241 399.005 147.739 400.463 148.924C401.935 150.095 403.692 150.681 405.737 150.681C407.377 150.681 408.836 150.297 410.112 149.529C411.401 148.761 412.41 147.706 413.139 146.365C413.881 145.011 414.252 143.481 414.252 141.775C414.252 140.03 413.868 138.474 413.1 137.107C412.345 135.727 411.303 134.64 409.975 133.845C408.647 133.051 407.13 132.648 405.424 132.635C404.2 132.622 402.944 132.81 401.655 133.201C400.366 133.579 399.304 134.067 398.471 134.666L393.94 134.119L396.362 114.431H417.143V118.728H400.424L399.018 130.525H399.252C400.073 129.874 401.101 129.334 402.338 128.904C403.575 128.474 404.864 128.26 406.205 128.26C408.653 128.26 410.834 128.845 412.748 130.017C414.675 131.176 416.186 132.765 417.28 134.783C418.386 136.801 418.94 139.106 418.94 141.697C418.94 144.249 418.367 146.528 417.221 148.533C416.088 150.525 414.526 152.101 412.534 153.26C410.541 154.405 408.276 154.978 405.737 154.978ZM439.745 154.978C436.803 154.978 434.296 154.178 432.226 152.576C430.156 150.961 428.574 148.624 427.48 145.564C426.386 142.491 425.839 138.78 425.839 134.431C425.839 130.109 426.386 126.417 427.48 123.357C428.587 120.284 430.175 117.941 432.245 116.326C434.329 114.698 436.829 113.885 439.745 113.885C442.662 113.885 445.156 114.698 447.226 116.326C449.309 117.941 450.898 120.284 451.992 123.357C453.098 126.417 453.652 130.109 453.652 134.431C453.652 138.78 453.105 142.491 452.011 145.564C450.917 148.624 449.335 150.961 447.265 152.576C445.195 154.178 442.688 154.978 439.745 154.978ZM439.745 150.681C442.662 150.681 444.928 149.275 446.542 146.463C448.157 143.65 448.964 139.64 448.964 134.431C448.964 130.968 448.593 128.019 447.851 125.584C447.122 123.149 446.067 121.293 444.687 120.017C443.32 118.741 441.673 118.103 439.745 118.103C436.855 118.103 434.596 119.529 432.968 122.381C431.34 125.219 430.527 129.236 430.527 134.431C430.527 137.895 430.891 140.838 431.62 143.26C432.35 145.681 433.398 147.524 434.765 148.787C436.145 150.05 437.805 150.681 439.745 150.681ZM481.464 146.931V144.822C481.464 143.364 481.764 142.029 482.363 140.818C482.975 139.594 483.86 138.618 485.019 137.888C486.191 137.146 487.61 136.775 489.277 136.775C490.969 136.775 492.389 137.146 493.534 137.888C494.68 138.618 495.546 139.594 496.132 140.818C496.718 142.029 497.011 143.364 497.011 144.822V146.931C497.011 148.39 496.712 149.731 496.113 150.955C495.527 152.166 494.654 153.142 493.495 153.885C492.35 154.614 490.943 154.978 489.277 154.978C487.584 154.978 486.158 154.614 484.999 153.885C483.84 153.142 482.962 152.166 482.363 150.955C481.764 149.731 481.464 148.39 481.464 146.931ZM485.449 144.822V146.931C485.449 148.142 485.735 149.23 486.308 150.193C486.881 151.144 487.87 151.619 489.277 151.619C490.644 151.619 491.607 151.144 492.167 150.193C492.74 149.23 493.027 148.142 493.027 146.931V144.822C493.027 143.611 492.753 142.53 492.206 141.58C491.659 140.616 490.683 140.135 489.277 140.135C487.909 140.135 486.926 140.616 486.327 141.58C485.742 142.53 485.449 143.611 485.449 144.822ZM461.542 124.041V121.931C461.542 120.473 461.842 119.138 462.441 117.928C463.053 116.704 463.938 115.727 465.097 114.998C466.269 114.256 467.688 113.885 469.355 113.885C471.048 113.885 472.467 114.256 473.613 114.998C474.758 115.727 475.624 116.704 476.21 117.928C476.796 119.138 477.089 120.473 477.089 121.931V124.041C477.089 125.499 476.79 126.84 476.191 128.064C475.605 129.275 474.732 130.252 473.574 130.994C472.428 131.723 471.021 132.088 469.355 132.088C467.662 132.088 466.236 131.723 465.077 130.994C463.919 130.252 463.04 129.275 462.441 128.064C461.842 126.84 461.542 125.499 461.542 124.041ZM465.527 121.931V124.041C465.527 125.252 465.813 126.339 466.386 127.303C466.959 128.253 467.949 128.728 469.355 128.728C470.722 128.728 471.686 128.253 472.245 127.303C472.818 126.339 473.105 125.252 473.105 124.041V121.931C473.105 120.72 472.831 119.64 472.284 118.689C471.738 117.726 470.761 117.244 469.355 117.244C467.988 117.244 467.005 117.726 466.406 118.689C465.82 119.64 465.527 120.72 465.527 121.931ZM463.027 154.431L490.527 114.431H494.98L467.48 154.431H463.027Z" fill="#B2BAC1"/>
<path d="M215.634 191.193H166.59V240.237H215.634V191.193Z" fill="#5CDDBC"/>
<path d="M284.011 203.403H231.101C229.473 203.403 228.048 201.979 228.048 200.351C228.048 198.723 229.473 197.298 231.101 197.298H284.011C285.639 197.298 287.064 198.723 287.064 200.351C287.064 201.979 285.639 203.403 284.011 203.403Z" fill="#5CDDBC"/>
<path d="M284.011 219.073H231.101C229.473 219.073 228.048 217.648 228.048 216.02C228.048 214.392 229.473 212.968 231.101 212.968H284.011C285.639 212.968 287.064 214.392 287.064 216.02C287.064 217.648 285.639 219.073 284.011 219.073Z" fill="#5CDDBC"/>
<path d="M258.777 234.539H231.304C229.676 234.539 228.252 233.114 228.252 231.486C228.252 229.858 229.676 228.434 231.304 228.434H258.777C260.405 228.434 261.83 229.858 261.83 231.486C261.83 233.114 260.405 234.539 258.777 234.539Z" fill="#5CDDBC"/>
<path d="M377.01 191.193H327.966V240.237H377.01V191.193Z" fill="#5CDDBC"/>
<path d="M445.183 203.403H392.273C390.645 203.403 389.22 201.979 389.22 200.351C389.22 198.723 390.645 197.298 392.273 197.298H445.183C446.811 197.298 448.236 198.723 448.236 200.351C448.439 201.979 447.014 203.403 445.183 203.403Z" fill="#5CDDBC"/>
<path d="M445.183 219.073H392.273C390.645 219.073 389.22 217.648 389.22 216.02C389.22 214.392 390.645 212.968 392.273 212.968H445.183C446.811 212.968 448.236 214.392 448.236 216.02C448.439 217.648 447.015 219.073 445.183 219.073Z" fill="#5CDDBC"/>
<path d="M419.95 234.539H392.477C390.849 234.539 389.424 233.114 389.424 231.486C389.424 229.858 390.849 228.434 392.477 228.434H419.95C421.578 228.434 423.002 229.858 423.002 231.486C423.002 233.114 421.781 234.539 419.95 234.539Z" fill="#5CDDBC"/>
<path d="M604.931 351.145H516.001V483.014H604.931V351.145Z" fill="white" stroke="#2F323A" stroke-miterlimit="10" stroke-linecap="round" stroke-linejoin="round"/>
<path d="M571.557 352.366H549.376V481.59H571.557V352.366Z" fill="#5CDDBC"/>
<path d="M610.63 335.476H510.304V366.611H610.63V335.476Z" fill="white" stroke="#2F323A" stroke-miterlimit="10" stroke-linecap="round" stroke-linejoin="round"/>
<path d="M542.66 408.94H468.789V482.811H542.66V408.94Z" fill="white" stroke="#2F323A" stroke-miterlimit="10" stroke-linecap="round" stroke-linejoin="round"/>
<path d="M541.979 455.146V436.628H469.737V455.146H541.979Z" fill="#5CDDBC"/>
<path d="M547.544 400.393H464.109V417.894H547.544V400.393Z" fill="white" stroke="#2F323A" stroke-miterlimit="10" stroke-linecap="round" stroke-linejoin="round"/>
<path d="M441.722 148.051H402.243V208.491H441.722V148.051Z" fill="#5CDDBC"/>
<path d="M441.926 149.272C441.926 151.103 441.722 152.935 441.112 154.563C438.873 162.906 431.14 169.011 421.983 169.011C410.994 169.011 402.243 160.057 402.243 149.272C402.243 148.458 402.243 147.847 402.446 147.033C403.057 142.353 405.092 138.283 408.348 135.027C410.383 132.992 412.825 131.567 415.674 130.55C417.709 129.736 419.948 129.532 422.186 129.532C423.407 129.532 424.425 129.532 425.442 129.736C425.646 129.736 425.646 129.736 425.849 129.736C426.053 129.736 426.256 129.736 426.46 129.939C435.21 131.771 441.926 139.707 441.926 149.272Z" fill="#5CDDBC"/>
<path d="M417.709 206.456C417.505 207.27 417.302 207.88 416.895 208.694L394.713 258.552C392.475 263.639 386.777 266.489 381.282 265.268L352.385 258.755L356.862 238.812L377.009 240.033L395.324 199.13C397.969 193.228 404.888 190.582 410.993 193.228C416.284 195.467 418.93 201.165 417.709 206.456Z" fill="#2F323A" stroke="#2F323A" stroke-miterlimit="10"/>
<path d="M320.639 253.057C321.25 252.65 321.657 252.447 322.267 252.04L352.589 258.756L357.066 238.812L325.93 236.981C323.895 232.911 319.825 230.062 314.941 230.062C308.225 230.062 302.731 235.556 302.731 242.272C302.731 248.987 308.225 254.482 314.941 254.482C316.976 254.482 319.011 254.075 320.639 253.057Z" fill="white" stroke="#2F323A" stroke-miterlimit="10" stroke-linecap="round" stroke-linejoin="round"/>
<path d="M466.16 415.797L453.311 424.764L463.444 439.282L476.293 430.315L466.16 415.797Z" fill="white" stroke="#2F323A" stroke-miterlimit="10" stroke-linecap="round" stroke-linejoin="round"/>
<path d="M493.412 441.296L437.856 480.165L436.024 477.519L455.968 438.651L478.556 422.981L493.412 441.296Z" fill="#2F323A"/>
<path d="M447.42 452.285L459.63 450.657" stroke="white" stroke-miterlimit="10"/>
<path d="M445.385 457.169L456.578 455.745" stroke="white" stroke-miterlimit="10"/>
<path d="M442.943 462.053L451.49 461.443" stroke="white" stroke-miterlimit="10"/>
<path d="M491.988 439.261L436.432 478.13" stroke="white" stroke-miterlimit="10"/>
<path d="M472.857 421.353L453.728 434.581L416.691 396.323L408.551 387.979L381.689 360.506L422.796 320.009L434.803 342.598L441.111 354.401L472.857 421.353Z" fill="white" stroke="#2F323A" stroke-miterlimit="10" stroke-linecap="round" stroke-linejoin="round"/>
<path d="M441.111 354.401L416.691 396.323L408.551 387.979L434.803 342.598L441.111 354.401Z" fill="#2F323A"/>
<path d="M453.526 223.346L451.898 231.486L442.537 276.664H396.545L395.731 244.714C387.795 230.062 391.661 219.073 397.563 209.508L408.755 190.99H434.6C442.74 190.99 447.421 194.246 449.863 199.537C450.677 201.368 451.491 203.403 451.898 205.642C453.322 210.729 453.526 216.834 453.526 223.346Z" fill="#2F323A"/>
<path d="M510.098 209.915L488.324 236.37C486.085 239.016 483.033 240.644 479.777 240.847C479.37 240.847 478.963 240.847 478.556 240.847C475.503 240.847 472.654 239.83 470.416 237.795L443.35 215.003C440.297 212.561 438.873 208.898 438.873 205.235C438.873 202.386 439.89 199.537 441.925 197.095C446.402 191.803 454.542 190.989 459.833 195.67L477.131 210.119L496.26 191.6L510.098 209.915Z" fill="#2F323A"/>
<path d="M551.002 166.162C549.985 165.145 548.357 165.145 547.339 166.162L542.252 171.25C542.252 171.046 542.252 171.046 542.252 170.843L550.392 162.906C551.613 161.685 551.613 159.854 550.392 158.633C549.171 157.412 547.339 157.412 546.118 158.633L539.606 165.145C539.606 165.145 539.606 165.145 539.606 164.941L548.764 155.784C549.985 154.563 549.985 152.731 548.764 151.51C547.543 150.289 545.711 150.289 544.49 151.51L534.722 161.278H534.519L542.455 153.342C543.676 152.121 543.676 150.289 542.455 149.068C541.234 147.847 539.403 147.847 538.182 149.068L526.786 160.464C520.477 161.482 515.797 166.976 515.593 173.488L496.464 192.007L510.709 209.915L529.228 187.53C529.635 187.53 530.245 187.53 530.652 187.53C535.536 187.123 551.613 170.029 551.613 170.029C552.02 169.011 552.02 167.383 551.002 166.162Z" fill="white" stroke="#2F323A" stroke-miterlimit="10" stroke-linecap="round" stroke-linejoin="round"/>
<path d="M584.174 201.368H533.706C531.06 201.368 528.822 199.13 528.822 196.484V160.871C528.822 158.226 531.06 155.987 533.706 155.987H584.174C586.82 155.987 589.058 158.226 589.058 160.871V196.484C589.058 199.13 586.82 201.368 584.174 201.368Z" fill="#2F323A"/>
<path d="M589.058 167.587H528.822V174.71H589.058V167.587Z" fill="white"/>
<path d="M528.822 163.313H589.058" stroke="#5CDDBC" stroke-miterlimit="10"/>
<path d="M554.462 192.414H533.298V195.06H554.462V192.414Z" fill="white"/>
<path d="M561.584 192.414H556.09V195.06H561.584V192.414Z" fill="white"/>
<path d="M583.97 192.414H578.475V195.06H583.97V192.414Z" fill="white"/>
<path d="M583.97 178.983H578.475V181.628H583.97V178.983Z" fill="white"/>
<path d="M543.88 178.983H533.298V181.628H543.88V178.983Z" fill="white"/>
<path d="M524.752 170.029C526.176 172.878 529.636 173.895 532.485 172.471C535.13 171.25 536.148 168.197 535.334 165.552L540.218 163.11C541.846 162.296 542.456 160.261 541.642 158.633C540.828 157.005 538.793 156.394 537.165 157.208L527.194 162.092" fill="white"/>
<path d="M524.752 170.029C526.176 172.878 529.636 173.895 532.485 172.471C535.13 171.25 536.148 168.197 535.334 165.552L540.218 163.11C541.846 162.296 542.456 160.261 541.642 158.633C540.828 157.005 538.793 156.394 537.165 157.208L527.194 162.092" stroke="#2F323A" stroke-miterlimit="10" stroke-linecap="round" stroke-linejoin="round"/>
<path d="M442.943 155.173C444.775 156.801 444.164 160.261 441.722 162.703C439.28 165.348 436.024 166.162 434.193 164.534C432.361 162.906 432.972 159.447 435.414 157.005C437.856 154.359 441.112 153.749 442.943 155.173Z" fill="white" stroke="#2F323A" stroke-miterlimit="10" stroke-linecap="round" stroke-linejoin="round"/>
<path d="M440.501 158.226L436.635 162.092" stroke="#2F323A" stroke-miterlimit="10" stroke-linecap="round" stroke-linejoin="round"/>
<path d="M400.412 156.191C398.58 157.819 399.191 161.278 401.633 163.72C404.075 166.366 407.331 167.18 409.162 165.552C410.994 163.924 410.383 160.464 407.941 158.022C405.499 155.377 402.04 154.563 400.412 156.191Z" fill="white" stroke="#2F323A" stroke-miterlimit="10" stroke-linecap="round" stroke-linejoin="round"/>
<path d="M402.447 159.447L406.11 162.703" stroke="#2F323A" stroke-miterlimit="10" stroke-linecap="round" stroke-linejoin="round"/>
<path d="M424.221 205.845C417.913 205.845 413.029 200.758 413.029 194.653V164.738H435.617V194.653C435.617 200.758 430.53 205.845 424.221 205.845Z" fill="white" stroke="#2F323A" stroke-miterlimit="10" stroke-linecap="round" stroke-linejoin="round"/>
<path d="M435.617 165.552V169.215C435.617 179.187 429.716 187.327 422.39 187.327H418.116C416.285 187.327 414.657 186.92 413.029 185.902V176.134C415.064 177.559 417.506 178.576 420.151 178.576C426.663 178.576 432.158 173.285 434.396 165.552H435.617Z" fill="#2F323A"/>
<path d="M420.761 135.434C411.4 135.434 403.87 142.963 403.87 152.324V167.587C403.87 175.727 410.382 182.239 418.522 182.239C429.104 182.239 437.652 173.692 437.652 163.11V152.528C437.652 142.963 430.122 135.434 420.761 135.434Z" fill="white" stroke="#2F323A" stroke-miterlimit="10" stroke-linecap="round" stroke-linejoin="round"/>
<path d="M438.466 144.184C436.024 138.893 432.361 134.823 427.884 131.974C427.681 131.974 427.477 131.974 427.274 131.771C427.07 131.771 427.07 131.771 426.867 131.771C425.646 131.567 424.628 131.567 423.407 131.567C420.965 131.567 418.727 131.974 416.488 132.788H416.285C415.674 132.992 415.267 133.195 414.657 133.399C414.453 133.399 414.25 133.602 414.046 133.602C413.639 133.806 413.232 134.009 412.825 134.416C412.622 134.62 412.418 134.62 412.215 134.823C411.808 135.027 411.401 135.434 410.994 135.637C410.79 135.841 410.587 135.841 410.383 136.044C409.773 136.451 409.366 136.858 408.755 137.469C405.296 140.725 403.057 145.202 402.447 150.086C403.261 150.289 403.871 150.493 404.685 150.493C408.145 150.493 410.994 148.051 413.232 143.981C420.151 151.307 430.53 154.359 440.501 151.51C440.298 148.865 439.484 146.423 438.466 144.184Z" fill="#5CDDBC"/>
<path d="M427.884 152.731H421.168" stroke="#2F323A" stroke-miterlimit="10" stroke-linecap="round" stroke-linejoin="round"/>
<path d="M413.029 152.731H406.11" stroke="#2F323A" stroke-miterlimit="10" stroke-linecap="round" stroke-linejoin="round"/>
<path d="M416.082 158.836L413.436 165.552H417.71" fill="white"/>
<path d="M416.082 158.836L413.436 165.552H417.71" stroke="#2F323A" stroke-miterlimit="10" stroke-linecap="round" stroke-linejoin="round"/>
<path d="M414.861 172.878C417.71 173.692 421.169 172.471 422.797 169.825L414.861 172.878Z" fill="white"/>
<path d="M414.861 172.878C417.71 173.692 421.169 172.471 422.797 169.825" stroke="#2F323A" stroke-miterlimit="10" stroke-linecap="round" stroke-linejoin="round"/>
<path d="M422.796 160.871C423.203 160.871 423.61 160.464 423.61 160.057V158.226C423.61 157.819 423.203 157.412 422.796 157.412C422.389 157.412 421.982 157.819 421.982 158.226V160.057C421.779 160.464 422.186 160.871 422.796 160.871Z" fill="#2F323A"/>
<path d="M421.168 157.615H425.849L427.273 156.191" fill="white"/>
<path d="M421.168 157.615H425.849L427.273 156.191" stroke="#2F323A" stroke-miterlimit="10" stroke-linecap="round" stroke-linejoin="round"/>
<path d="M409.163 160.871C409.57 160.871 409.977 160.464 409.977 160.057V158.226C409.977 157.819 409.57 157.412 409.163 157.412C408.756 157.412 408.349 157.819 408.349 158.226V160.057C408.145 160.464 408.552 160.871 409.163 160.871Z" fill="#2F323A"/>
<path d="M411.604 157.615H406.923L405.295 156.191" fill="white"/>
<path d="M411.604 157.615H406.923L405.295 156.191" stroke="#2F323A" stroke-miterlimit="10" stroke-linecap="round" stroke-linejoin="round"/>
<path d="M441.926 173.896H436.431V213.171H441.926V173.896Z" fill="#5CDDBC"/>
<path d="M373.956 445.57H358.286V463.274H373.956V445.57Z" fill="white" stroke="#2F323A" stroke-miterlimit="10" stroke-linecap="round" stroke-linejoin="round"/>
<path d="M381.69 481.997H313.924V478.944L352.385 458.594H379.858L381.69 481.997Z" fill="#2F323A"/>
<path d="M337.734 464.699L348.723 470.397" stroke="white" stroke-miterlimit="10"/>
<path d="M333.256 467.548L343.228 472.839" stroke="white" stroke-miterlimit="10"/>
<path d="M328.372 470.194L335.902 474.467" stroke="white" stroke-miterlimit="10"/>
<path d="M381.69 479.555H313.924" stroke="white" stroke-miterlimit="10"/>
<path d="M379.044 450.657H352.385L396.545 276.664H442.536C444.368 278.088 445.792 280.327 447.217 282.972C452.711 293.554 452.915 305.968 448.438 317.161C446.199 322.859 442.74 329.778 437.449 337.714L379.044 450.657Z" fill="white" stroke="#2F323A" stroke-miterlimit="10" stroke-linecap="round" stroke-linejoin="round"/>
<path d="M362.968 450.657L420.763 295.793" stroke="#5CDDBC" stroke-miterlimit="10"/>
<path d="M314.737 247.36L298.864 260.587C296.829 262.215 293.98 262.012 292.352 259.977C290.724 257.942 290.927 255.093 292.962 253.465L308.836 240.237C310.871 238.609 313.72 238.813 315.348 240.848C316.976 242.883 316.772 245.732 314.737 247.36Z" fill="#2F323A"/>
<path d="M315.755 242.475C313.11 242.882 311.278 244.917 310.668 247.359L305.173 248.377C302.731 248.784 301.307 251.022 301.714 253.261C302.121 255.703 304.359 257.128 306.598 256.721L317.383 254.889H317.587C317.79 254.889 317.79 254.889 317.994 254.889C320.029 254.482 321.657 253.261 322.471 251.633" fill="white"/>
<path d="M315.755 242.475C313.11 242.882 311.278 244.917 310.668 247.359L305.173 248.377C302.731 248.784 301.307 251.022 301.714 253.261C302.121 255.703 304.359 257.128 306.598 256.721L317.383 254.889H317.587C317.79 254.889 317.79 254.889 317.994 254.889C320.029 254.482 321.657 253.261 322.471 251.633" stroke="#2F323A" stroke-miterlimit="10" stroke-linecap="round" stroke-linejoin="round"/>
<path d="M315.755 230.062L306.19 228.027C305.376 227.823 304.562 228.027 303.748 228.434C302.324 228.637 301.103 229.858 300.899 231.486L299.068 242.882C298.661 244.917 300.085 246.749 302.12 247.156C304.155 247.563 305.987 246.139 306.394 244.103L307.615 236.167L313.109 237.388" fill="white"/>
<path d="M315.755 230.062L306.19 228.027C305.376 227.823 304.562 228.027 303.748 228.434C302.324 228.637 301.103 229.858 300.899 231.486L299.068 242.882C298.661 244.917 300.085 246.749 302.12 247.156C304.155 247.563 305.987 246.139 306.394 244.103L307.615 236.167L313.109 237.388" stroke="#2F323A" stroke-miterlimit="10" stroke-linecap="round" stroke-linejoin="round"/>
<path d="M225.604 388.793H120.801L135.453 263.436H211.155L225.604 388.793Z" fill="#5CDDBC"/>
<path d="M152.14 286.228C152.14 284.6 153.565 283.176 155.193 283.176C156.821 283.176 158.245 284.6 158.245 286.228C158.245 287.856 156.821 289.281 155.193 289.281C153.565 289.281 152.14 287.856 152.14 286.228Z" fill="white" stroke="#2F323A" stroke-miterlimit="10" stroke-linecap="round" stroke-linejoin="round"/>
<path d="M188.16 286.228C188.16 284.6 189.585 283.176 191.213 283.176C192.841 283.176 194.265 284.6 194.265 286.228C194.265 287.856 192.841 289.281 191.213 289.281C189.585 289.281 188.16 287.856 188.16 286.228Z" fill="white" stroke="#2F323A" stroke-miterlimit="10" stroke-linecap="round" stroke-linejoin="round"/>
<path d="M155.396 286.228V308.206C155.396 318.178 163.333 326.115 173.304 326.115C183.276 326.115 191.212 318.178 191.212 308.206V286.228" stroke="#2F323A" stroke-miterlimit="10" stroke-linecap="round" stroke-linejoin="round"/>
<path d="M238.222 388.793H171.677L181.038 309.224H229.064L238.222 388.793Z" fill="white" stroke="#2F323A" stroke-miterlimit="10" stroke-linecap="round" stroke-linejoin="round"/>
<path d="M191.619 323.672C191.619 322.655 192.433 321.637 193.654 321.637C194.672 321.637 195.689 322.451 195.689 323.672C195.689 324.69 194.875 325.707 193.654 325.707C192.433 325.504 191.619 324.69 191.619 323.672Z" fill="white" stroke="#2F323A" stroke-miterlimit="10" stroke-linecap="round" stroke-linejoin="round"/>
<path d="M214.411 323.672C214.411 322.655 215.225 321.637 216.446 321.637C217.464 321.637 218.481 322.451 218.481 323.672C218.481 324.69 217.667 325.707 216.446 325.707C215.225 325.504 214.411 324.69 214.411 323.672Z" fill="white" stroke="#2F323A" stroke-miterlimit="10" stroke-linecap="round" stroke-linejoin="round"/>
<path d="M193.654 323.672V337.714C193.654 344.023 198.742 349.11 205.05 349.11C211.359 349.11 216.446 344.023 216.446 337.714V323.672" stroke="#2F323A" stroke-miterlimit="10" stroke-linecap="round" stroke-linejoin="round"/>
<path d="M259.792 388.793H103.503V268.524H293.37L259.792 388.793Z" stroke="#2F323A" stroke-miterlimit="10" stroke-linecap="round" stroke-linejoin="round"/>
<path d="M295.609 260.791L259.792 388.793L268.746 452.489H123.853" stroke="#2F323A" stroke-miterlimit="10" stroke-linecap="round" stroke-linejoin="round"/>
<path d="M263.107 478.352C268.988 472.471 268.988 462.936 263.107 457.055C257.226 451.174 247.691 451.174 241.811 457.055C235.93 462.936 235.93 472.471 241.811 478.352C247.691 484.233 257.226 484.233 263.107 478.352Z" fill="#2F323A"/>
<path d="M242.292 467.751C242.292 462.257 246.769 457.78 252.263 457.78C257.758 457.78 262.235 462.257 262.235 467.751C262.235 473.246 257.758 477.723 252.263 477.723C246.972 477.723 242.292 473.246 242.292 467.751Z" fill="white" stroke="#2F323A" stroke-miterlimit="10" stroke-linecap="round" stroke-linejoin="round"/>
<path d="M155.792 471.283C157.772 463.205 152.828 455.052 144.749 453.072C136.671 451.093 128.518 456.037 126.539 464.115C124.559 472.193 129.503 480.347 137.581 482.326C145.66 484.305 153.813 479.361 155.792 471.283Z" fill="#2F323A"/>
<path d="M131.179 467.751C131.179 462.257 135.656 457.78 141.151 457.78C146.645 457.78 151.122 462.257 151.122 467.751C151.122 473.246 146.645 477.723 141.151 477.723C135.656 477.723 131.179 473.246 131.179 467.751Z" fill="white" stroke="#2F323A" stroke-miterlimit="10" stroke-linecap="round" stroke-linejoin="round"/>
<path d="M120.801 268.32V388.793" stroke="#2F323A" stroke-miterlimit="10" stroke-linecap="round" stroke-linejoin="round"/>
<path d="M141.965 268.32V388.793" stroke="#2F323A" stroke-miterlimit="10" stroke-linecap="round" stroke-linejoin="round"/>
<path d="M163.129 268.32V388.793" stroke="#2F323A" stroke-miterlimit="10" stroke-linecap="round" stroke-linejoin="round"/>
<path d="M184.294 268.32V388.793" stroke="#2F323A" stroke-miterlimit="10" stroke-linecap="round" stroke-linejoin="round"/>
<path d="M205.662 268.32V388.793" stroke="#2F323A" stroke-miterlimit="10" stroke-linecap="round" stroke-linejoin="round"/>
<path d="M226.826 268.32V388.793" stroke="#2F323A" stroke-miterlimit="10" stroke-linecap="round" stroke-linejoin="round"/>
<path d="M247.989 268.32V388.793" stroke="#2F323A" stroke-miterlimit="10" stroke-linecap="round" stroke-linejoin="round"/>
<path d="M269.153 355.419V268.524V268.32" stroke="#2F323A" stroke-miterlimit="10" stroke-linecap="round" stroke-linejoin="round"/>
<path d="M287.061 291.519H103.503" stroke="#2F323A" stroke-miterlimit="10" stroke-linecap="round" stroke-linejoin="round"/>
<path d="M281.363 311.869H103.503" stroke="#2F323A" stroke-miterlimit="10" stroke-linecap="round" stroke-linejoin="round"/>
<path d="M274.851 332.83H103.503" stroke="#2F323A" stroke-miterlimit="10" stroke-linecap="round" stroke-linejoin="round"/>
<path d="M269.153 353.791H103.503" stroke="#2F323A" stroke-miterlimit="10" stroke-linecap="round" stroke-linejoin="round"/>
<path d="M264.473 372.106H103.503" stroke="#2F323A" stroke-miterlimit="10" stroke-linecap="round" stroke-linejoin="round"/>
<path d="M629.148 483.014H47.9485" stroke="#2F323A" stroke-miterlimit="10" stroke-linecap="round" stroke-linejoin="round"/>
</svg>
